# xmcd
#
# Track frame offsets:
#	150
#	18070
#	33092
#	47360
#	69150
#	83132
#	104857
#	120297
#	132592
#	148732
#	165070
#
# Disc length: 2345 seconds
#
# Revision: 0
# Processed by: cddbd v1.4PL0 Copyright (c) Steve Scherf et al.
# Submitted via: dBpowerAMP V4.0
#
DISCID=7f09270b
DTITLE=Nørmølle, Johnny and Nordfolk - Pretty Sue
DYEAR=2001
DGENRE=Blues Rock
TTITLE0=Pretty Sue
TTITLE1=Den Lille Rejse
TTITLE2=Bluesmanden
TTITLE3=Lok Mig Ud
TTITLE4=Tosseholm Blus
TTITLE5=Hej Bette Engel
TTITLE6=Hallo Gén
TTITLE7=Kald Mig Hvad I Vil
TTITLE8=Månen Over Palcon Sø
TTITLE9=Mississippi Mud Stepper Blues
TTITLE10=Gid I Altid Må Blive
EXTD=Danish
EXTT0=
EXTT1=
EXTT2=
EXTT3=
EXTT4=
EXTT5=
EXTT6=
EXTT7=
EXTT8=
EXTT9=
EXTT10=
PLAYORDER=
